<svg width="454" height="355" viewBox="0 0 454 355" fill="none" xmlns="http://www.w3.org/2000/svg">
<path fill-rule="evenodd" clip-rule="evenodd" d="M222.276 5.34705C257.522 8.07831 291.932 9.59707 323.918 24.6298C362.166 42.6054 401.684 62.6035 422.402 99.4002C445.551 140.514 468.171 196.08 442.881 235.916C416.708 277.141 350.592 258.631 307.131 280.968C274.014 297.988 258.497 340.629 222.276 349.292C181.694 358.999 132.152 358.57 101.67 330.109C71.4323 301.876 91.4443 250.088 75.2712 212.035C56.4318 167.709 -7.08594 139.953 0.649769 92.4235C8.16331 46.2586 64.9063 25.0594 108.489 7.93573C144.68 -6.28335 183.502 2.34237 222.276 5.34705Z" fill="#043CAA"/>
</svg>
